<?xml version="1.0" standalone="no"?>
<!DOCTYPE svg PUBLIC "-//W3C//DTD SVG 20010904//EN"
 "http://www.w3.org/TR/2001/REC-SVG-20010904/DTD/svg10.dtd">
<svg version="1.0" xmlns="http://www.w3.org/2000/svg"
 width="117.000000pt" height="98.000000pt" viewBox="0 0 117.000000 98.000000"
 preserveAspectRatio="xMidYMid meet">

<g transform="translate(0.000000,98.000000) scale(0.100000,-0.100000)"
fill="#000000" stroke="none">
<path d="M985 922 c-22 -21 -133 -124 -247 -231 l-208 -193 0 -90 0 -91 48 43
c26 24 76 71 112 104 36 34 129 121 208 195 l142 134 -1 46 c0 25 -3 63 -7 83
l-7 38 -40 -38z m-147 -295 c-100 -98 -209 -201 -240 -229 l-58 -50 1 74 1 73
56 49 c118 103 229 204 322 293 l95 92 3 -62 4 -62 -184 -178z"/>
<path d="M936 835 c-11 -8 -15 -15 -9 -15 6 0 16 7 23 15 16 19 11 19 -14 0z"/>
<path d="M970 817 c-11 -19 -11 -20 1 -11 8 6 21 13 28 16 13 4 13 5 0 10 -9
4 -21 -2 -29 -15z"/>
<path d="M1042 764 l-112 -106 0 -264 0 -265 53 3 52 3 3 225 2 225 57 50 c51
46 57 55 64 105 10 73 11 130 1 130 -4 0 -58 -48 -120 -106z m108 7 l0 -58
-66 -66 -65 -66 3 -98 c2 -54 2 -151 1 -215 l-3 -118 -34 0 c-32 0 -34 2 -40
46 -3 26 -6 138 -6 250 l0 203 102 90 c56 50 103 91 105 91 2 0 3 -26 3 -59z"/>
<path d="M252 417 l-254 -254 32 -7 c18 -3 60 -6 94 -6 l61 0 109 109 c61 61
114 107 119 104 5 -3 8 0 6 6 -3 7 -9 12 -14 10 -6 -1 -59 -48 -120 -106
l-109 -104 -68 2 c-37 1 -68 5 -68 8 0 9 443 451 452 451 4 0 9 -87 10 -194
l3 -194 91 87 c50 47 137 128 192 180 l102 93 0 -226 0 -226 -35 0 c-19 0 -36
1 -36 3 -1 1 -4 53 -8 115 l-6 113 -125 -112 c-175 -157 -271 -250 -268 -260
2 -5 89 70 193 167 l190 175 3 -110 3 -111 49 0 50 0 0 251 0 252 -52 -49
c-29 -26 -113 -105 -186 -174 -74 -69 -138 -126 -143 -128 -5 -2 -10 83 -11
192 l-3 196 -253 -253z"/>
<path d="M406 319 c-10 -49 -7 -252 4 -269 6 -10 10 37 10 143 0 86 -2 157 -4
157 -2 0 -6 -14 -10 -31z"/>
<path d="M506 145 c-11 -8 -15 -15 -9 -15 6 0 16 7 23 15 16 19 11 19 -14 0z"/>
</g>
</svg>
